<?xml version="1.0" encoding="UTF-8"?>
<svg xmlns="http://www.w3.org/2000/svg" viewBox="0 0 274.97 69.48"><defs><clipPath id="clip-path"><path id="Retângulo_1961" data-name="Retângulo 1961" fill="none" d="M0 0h274.97v69.48H0z"/></clipPath><clipPath id="clip-path-3"><path id="Retângulo_1959" data-name="Retângulo 1959" fill="none" d="M0 0h33.39v19.45H0z"/></clipPath></defs><g id="Grupo_2261" data-name="Grupo 2261" clip-path="url(#clip-path)"><g id="Grupo_2260" data-name="Grupo 2260"><g id="Grupo_2259" data-name="Grupo 2259" clip-path="url(#clip-path)"><path id="Caminho_2476" data-name="Caminho 2476" d="M144.06 19.57h-2.39L135.82 2h2.7l3.36 10.48c.2.61.48 1.55.66 2.32.13.56.23.97.28 1.32h.16c.07-.35.17-.69.35-1.32.2-.71.4-1.38.71-2.34l3.44-10.46h2.54Z" transform="translate(-56 -.82)" fill="#fff"/><path id="Caminho_2477" data-name="Caminho 2477" d="M164.2 3.95a1.65 1.65 0 0 1-1.62-1.68 1.67 1.67 0 1 1 3.33 0 1.7 1.7 0 0 1-1.7 1.68m-1.2 14.98V6.26l2.42-.38v13.05Z" transform="translate(-67.03 -.23)" fill="#fff"/><path id="Caminho_2478" data-name="Caminho 2478" d="M179.75 11.9a1.91 1.91 0 0 0-.66-.13 2.67 2.67 0 0 0-2.65 2.6v8.22h-2.34v-9.36a8.13 8.13 0 0 0-.48-3.18l2.26-.59a5.26 5.26 0 0 1 .43 1.96v.23c1.02-1.47 2.11-2.21 3.46-2.21a2.32 2.32 0 0 1 .8.13Z" transform="translate(-71.58 -3.9)" fill="#fff"/><path id="Caminho_2479" data-name="Caminho 2479" d="M193.93 9.1h-2.52v7.69c0 1.58.39 2.06 1.66 2.06a2.8 2.8 0 0 0 1.2-.26l.28 1.43a5.08 5.08 0 0 1-2.32.53 3.52 3.52 0 0 1-2.16-.63c-.53-.48-.94-.74-.94-2.6V9.11h-1.53V7.45h1.53a27.56 27.56 0 0 1 .15-3.25l2.42-.56c-.1.91-.23 2.52-.23 3.81h3.1Z" transform="translate(-77.35 -1.5)" fill="#fff"/><path id="Caminho_2480" data-name="Caminho 2480" d="M212.7 23.04a3 3 0 0 1-1.2-1.83 4.67 4.67 0 0 1-3.84 1.83 3.59 3.59 0 0 1-3.44-1.9 5.44 5.44 0 0 1-.3-2.14V9.94l2.32-.46v8.88c0 1.3.13 1.8.58 2.24a2.33 2.33 0 0 0 1.48.56 3.5 3.5 0 0 0 2.9-2.01V9.99l2.31-.46v9.6a3.48 3.48 0 0 0 .8 2.64Z" transform="translate(-84.08 -3.9)" fill="#fff"/><path id="Caminho_2481" data-name="Caminho 2481" d="M235.57 23.14a2.92 2.92 0 0 1-1.7-1.83 4.42 4.42 0 0 1-3.61 1.68c-2.55 0-4.12-1.3-4.12-3.74 0-2.95 2.36-4.53 6.48-4.53.3 0 .56 0 .9.03v-.84c0-1.5-.2-2.52-2-2.52a7.04 7.04 0 0 0-3.91 1.45l-1.07-1.68a10.03 10.03 0 0 1 5.34-1.68c1.86 0 3.2.69 3.7 2.04a5.82 5.82 0 0 1 .25 2.23c0 .92-.1 2.88-.1 4.74 0 1.75.05 2.46 1.04 3.07Zm-2.88-6.84c-1.75 0-2.82.33-3.33.92a2.46 2.46 0 0 0-.66 1.85c0 1.4.71 2.22 2 2.22a3.18 3.18 0 0 0 2.68-1.68l.08-3.26c-.36-.02-.56-.05-.77-.05" transform="translate(-93.24 -3.9)" fill="#fff"/><path id="Caminho_2482" data-name="Caminho 2482" d="M251.73 18.99a2.16 2.16 0 0 1-1.98-.97 3.23 3.23 0 0 1-.48-2.21V4.26a16.56 16.56 0 0 0-.28-3.66l2.44-.51a15.8 15.8 0 0 1 .23 3.63V15.2c0 1.35.07 1.65.33 1.88a.84.84 0 0 0 .79.18l.4 1.45a3.44 3.44 0 0 1-1.45.28" transform="translate(-102.66 -.04)" fill="#fff"/><path id="Caminho_2483" data-name="Caminho 2483" d="M279.56 19.52c-.5-1-.74-1.4-1.45-2.6a23.76 23.76 0 0 0-3.03-4.37 1.96 1.96 0 0 0-1.57-.79v7.76h-2.44V1.99h4.9a5.67 5.67 0 0 1 4.15 1.27 4.81 4.81 0 0 1 1.55 3.62c0 2.72-1.75 4.9-4.68 4.8a8.2 8.2 0 0 1 1.53 1.63c.36.49.89 1.25 1.48 2.17l2.54 4.04Zm-2.09-15.19a5.86 5.86 0 0 0-2.13-.33h-1.83v6.1h1.7a4.07 4.07 0 0 0 3.02-.83 3.23 3.23 0 0 0 .87-2.37 2.67 2.67 0 0 0-1.63-2.57" transform="translate(-111.76 -.82)" fill="#fff"/><path id="Caminho_2484" data-name="Caminho 2484" d="M296.1 16.71v.3a4.8 4.8 0 0 0 .54 2.55 3.32 3.32 0 0 0 2.93 1.5 4.54 4.54 0 0 0 3.12-1.22l.9 1.4a6.5 6.5 0 0 1-4.4 1.63c-3.54 0-5.7-2.57-5.7-6.74a6.97 6.97 0 0 1 1.52-4.94 4.75 4.75 0 0 1 3.84-1.75 4.6 4.6 0 0 1 3.46 1.37c1.12 1.15 1.53 2.57 1.55 5.5v.4Zm4.53-4.6a2.29 2.29 0 0 0-1.83-.89c-1.78 0-2.67 1.45-2.67 3.77h5.3a4.66 4.66 0 0 0-.8-2.88" transform="translate(-121 -3.9)" fill="#fff"/><path id="Caminho_2485" data-name="Caminho 2485" d="M320.88 22.83a4.67 4.67 0 0 1-4.1-1.91 7.7 7.7 0 0 1-1.22-4.6c0-2.88.91-4.54 2.14-5.63a4.99 4.99 0 0 1 6.76.05l-1.22 1.6a3.1 3.1 0 0 0-2.24-.99 2.45 2.45 0 0 0-2.24 1.37 9.05 9.05 0 0 0-.6 3.9 5.25 5.25 0 0 0 1.01 3.66 2.47 2.47 0 0 0 1.83.76 3.57 3.57 0 0 0 2.65-1.32l1.15 1.45a5.02 5.02 0 0 1-3.92 1.65" transform="translate(-130.11 -3.87)" fill="#fff"/><path id="Caminho_2486" data-name="Caminho 2486" d="M340.05 22.98c-3.41 0-5.53-2.6-5.53-6.74 0-4.12 2.12-6.72 5.47-6.72 3.77 0 5.6 3 5.6 6.85 0 4.04-2.16 6.61-5.54 6.61M340 11.33c-2.04 0-2.88 1.45-2.88 4.66 0 3.89 1 5.19 2.98 5.19 1.78 0 2.87-1.38 2.87-4.71 0-3.94-1.14-5.14-2.97-5.14" transform="translate(-137.93 -3.93)" fill="#fff"/><path id="Caminho_2487" data-name="Caminho 2487" d="M364.55 11.9a1.9 1.9 0 0 0-.66-.13 2.67 2.67 0 0 0-2.64 2.6v8.22h-2.34v-9.36a8.13 8.13 0 0 0-.49-3.18l2.27-.59a5.26 5.26 0 0 1 .43 1.96v.23c1.02-1.47 2.11-2.21 3.46-2.21a2.33 2.33 0 0 1 .79.13Z" transform="translate(-147.78 -3.9)" fill="#fff"/><path id="Caminho_2488" data-name="Caminho 2488" d="M380.65 18.7a4.92 4.92 0 0 1-.23-1.2 4.26 4.26 0 0 1-3.28 1.4c-3.26 0-5.17-2.44-5.17-6.46 0-2.75.94-4.86 2.67-5.98a4.4 4.4 0 0 1 2.5-.74 3.8 3.8 0 0 1 3.1 1.48c0-.36-.06-1.38-.06-2.24V0l2.34.38v14.05a15.25 15.25 0 0 0 .36 4.27Zm-.49-9.9a3.26 3.26 0 0 0-2.7-1.2 2.5 2.5 0 0 0-2.21 1.3 6.76 6.76 0 0 0-.66 3.51c0 2.47.3 3.15.99 3.87a2.4 2.4 0 0 0 1.88.66 3.02 3.02 0 0 0 2.7-1.48Z" transform="translate(-153.37)" fill="#fff"/><path id="Caminho_2489" data-name="Caminho 2489" d="M148.04 47.32h-4.56v15.5h-2.41v-15.5h-4.56v-2.04h11.78Z" transform="translate(-56.29 -18.67)" fill="#fff"/><path id="Caminho_2490" data-name="Caminho 2490" d="M163.65 55.2a1.91 1.91 0 0 0-.67-.13 2.67 2.67 0 0 0-2.64 2.6v8.22H158v-9.37a8.13 8.13 0 0 0-.48-3.18l2.26-.58a5.26 5.26 0 0 1 .43 1.95v.23c1.02-1.47 2.11-2.21 3.46-2.21a2.32 2.32 0 0 1 .8.13Z" transform="translate(-64.94 -21.74)" fill="#fff"/><path id="Caminho_2491" data-name="Caminho 2491" d="M173.64 60v.31a4.8 4.8 0 0 0 .54 2.54 3.32 3.32 0 0 0 2.92 1.5 4.53 4.53 0 0 0 3.13-1.22l.9 1.4a6.5 6.5 0 0 1-4.4 1.63c-3.55 0-5.7-2.57-5.7-6.74a6.97 6.97 0 0 1 1.52-4.94 4.75 4.75 0 0 1 3.84-1.75 4.6 4.6 0 0 1 3.46 1.37c1.12 1.15 1.53 2.57 1.55 5.5v.41Zm4.53-4.6a2.29 2.29 0 0 0-1.83-.89c-1.78 0-2.67 1.45-2.67 3.77h5.29a4.66 4.66 0 0 0-.79-2.88" transform="translate(-70.51 -21.74)" fill="#fff"/><path id="Caminho_2492" data-name="Caminho 2492" d="M202.45 66.43a2.91 2.91 0 0 1-1.7-1.83 4.42 4.42 0 0 1-3.61 1.68c-2.54 0-4.12-1.3-4.12-3.74 0-2.95 2.36-4.53 6.49-4.53.3 0 .56 0 .89.03v-.84c0-1.5-.2-2.52-1.99-2.52a7.04 7.04 0 0 0-3.92 1.45l-1.06-1.68a10.04 10.04 0 0 1 5.34-1.68c1.86 0 3.2.69 3.69 2.04a5.82 5.82 0 0 1 .25 2.24c0 .91-.1 2.87-.1 4.73 0 1.75.05 2.47 1.04 3.08Zm-2.87-6.84c-1.76 0-2.83.33-3.34.92a2.46 2.46 0 0 0-.66 1.85c0 1.4.72 2.22 2.01 2.22a3.17 3.17 0 0 0 2.67-1.68l.08-3.26c-.36-.02-.56-.05-.76-.05" transform="translate(-79.58 -21.76)" fill="#fff"/><path id="Caminho_2493" data-name="Caminho 2493" d="M219.03 66.15a9.7 9.7 0 0 1-4.76-1.35l.84-1.68a8.7 8.7 0 0 0 4.1 1.27 2.11 2.11 0 0 0 2.36-2.06c0-1.1-.66-1.73-2.13-2l-1.55-.31a3.42 3.42 0 0 1-3.1-3.54c0-2.34 1.85-3.97 4.6-3.97a8.1 8.1 0 0 1 4.02 1.05l-.8 1.65a6.9 6.9 0 0 0-3.12-.92 1.95 1.95 0 0 0-2.21 1.91c0 .92.45 1.43 1.8 1.73l1.66.38c2.34.54 3.3 1.89 3.3 3.57 0 2.54-2.03 4.27-5 4.27" transform="translate(-88.35 -21.65)" fill="#fff"/><path id="Caminho_2494" data-name="Caminho 2494" d="M244.78 66.33a3 3 0 0 1-1.2-1.83 4.68 4.68 0 0 1-3.84 1.83 3.59 3.59 0 0 1-3.44-1.9 5.43 5.43 0 0 1-.3-2.14v-9.06l2.32-.46v8.88c0 1.3.12 1.8.58 2.24a2.33 2.33 0 0 0 1.48.56 3.5 3.5 0 0 0 2.9-2.01v-9.16l2.31-.46v9.6a3.48 3.48 0 0 0 .8 2.64Z" transform="translate(-97.3 -21.76)" fill="#fff"/><path id="Caminho_2495" data-name="Caminho 2495" d="M265.08 55.2a1.9 1.9 0 0 0-.66-.13 2.67 2.67 0 0 0-2.65 2.6v8.22h-2.34v-9.37a8.13 8.13 0 0 0-.48-3.18l2.26-.58a5.26 5.26 0 0 1 .43 1.95v.23c1.02-1.47 2.12-2.21 3.46-2.21a2.33 2.33 0 0 1 .8.13Z" transform="translate(-106.77 -21.74)" fill="#fff"/><path id="Caminho_2496" data-name="Caminho 2496" d="M278.9 66.34a8.76 8.76 0 0 1-2.15 3.92 5.63 5.63 0 0 1-2.37 1.1l-.74-1.53a3.87 3.87 0 0 0 2.21-1.45 7.18 7.18 0 0 0 1.05-2.5l-.92.13a37.76 37.76 0 0 0-1.22-4.25l-2.82-8.37 2.36-.53 2.44 8.01c.23.8.56 2.14.74 3h.15c.2-.86.51-2 .87-3.15l2.26-7.53h2.6Z" transform="translate(-112.12 -21.8)" fill="#fff"/><path id="Caminho_2497" data-name="Caminho 2497" d="M302.74 66.27c-3.41 0-5.52-2.6-5.52-6.74 0-4.12 2.11-6.71 5.47-6.71 3.76 0 5.6 3 5.6 6.84 0 4.04-2.16 6.61-5.55 6.61m-.05-11.65c-2.03 0-2.87 1.45-2.87 4.66 0 3.9.99 5.19 2.97 5.19 1.78 0 2.88-1.37 2.88-4.7 0-3.95-1.15-5.15-2.98-5.15" transform="translate(-122.55 -21.78)" fill="#fff"/><path id="Caminho_2498" data-name="Caminho 2498" d="M327.04 45.72a3.63 3.63 0 0 0-1.65-.48c-1.07 0-1.7.74-1.7 2.03v2.06h3.38l-.61 1.66h-2.75v11.09h-2.36v-11.1h-1.23v-1.65h1.25c-.06-.25-.06-1.83-.06-2.03a3.67 3.67 0 0 1 1.43-3.18 3.88 3.88 0 0 1 2.31-.61 5.23 5.23 0 0 1 2.78.68Z" transform="translate(-131.99 -17.94)" fill="#fff"/><path id="Retângulo_1956" data-name="Retângulo 1956" transform="translate(202.73 26.61)" fill="#fff" d="M0 0h2.49v17.53H0z"/><path id="Caminho_2499" data-name="Caminho 2499" d="M361.92 55.2a1.9 1.9 0 0 0-.66-.13 2.67 2.67 0 0 0-2.64 2.6v8.22h-2.34v-9.37a8.13 8.13 0 0 0-.49-3.18l2.27-.58a5.28 5.28 0 0 1 .43 1.95v.23c1.02-1.47 2.11-2.21 3.46-2.21a2.33 2.33 0 0 1 .79.13Z" transform="translate(-146.7 -21.74)" fill="#fff"/><path id="Caminho_2500" data-name="Caminho 2500" d="M371.92 60v.31a4.8 4.8 0 0 0 .53 2.54 3.32 3.32 0 0 0 2.93 1.5 4.54 4.54 0 0 0 3.13-1.22l.89 1.4a6.5 6.5 0 0 1-4.4 1.63c-3.54 0-5.7-2.57-5.7-6.74a6.97 6.97 0 0 1 1.52-4.94 4.75 4.75 0 0 1 3.85-1.75 4.6 4.6 0 0 1 3.46 1.37c1.12 1.15 1.52 2.57 1.55 5.5v.41Zm4.53-4.6a2.29 2.29 0 0 0-1.83-.89c-1.79 0-2.68 1.45-2.68 3.77h5.3a4.66 4.66 0 0 0-.8-2.88" transform="translate(-152.27 -21.74)" fill="#fff"/><path id="Caminho_2501" data-name="Caminho 2501" d="M395.03 62.28a2.16 2.16 0 0 1-1.98-.97 3.23 3.23 0 0 1-.48-2.21V47.55a16.56 16.56 0 0 0-.28-3.66l2.44-.51a15.8 15.8 0 0 1 .23 3.64v11.47c0 1.35.07 1.65.33 1.88a.84.84 0 0 0 .79.18l.4 1.45a3.43 3.43 0 0 1-1.45.28" transform="translate(-161.74 -17.89)" fill="#fff"/><path id="Caminho_2502" data-name="Caminho 2502" d="M412.11 66.43a2.91 2.91 0 0 1-1.7-1.83 4.42 4.42 0 0 1-3.61 1.68c-2.54 0-4.12-1.3-4.12-3.74 0-2.95 2.36-4.53 6.49-4.53.3 0 .56 0 .89.03v-.84c0-1.5-.2-2.52-1.99-2.52a7.04 7.04 0 0 0-3.92 1.45l-1.06-1.68a10.04 10.04 0 0 1 5.34-1.68c1.86 0 3.2.69 3.69 2.04a5.82 5.82 0 0 1 .25 2.24c0 .91-.1 2.87-.1 4.73 0 1.75.05 2.47 1.05 3.08Zm-2.87-6.84c-1.76 0-2.83.33-3.34.92a2.46 2.46 0 0 0-.66 1.85c0 1.4.72 2.22 2.01 2.22a3.17 3.17 0 0 0 2.67-1.68l.08-3.26c-.36-.02-.56-.05-.76-.05" transform="translate(-166.03 -21.76)" fill="#fff"/><path id="Caminho_2503" data-name="Caminho 2503" d="M432.93 65.9v-8.6c0-1.15-.1-1.55-.4-1.96a1.58 1.58 0 0 0-1.3-.5 5.15 5.15 0 0 0-3.16 1.62v9.44h-2.31v-9.49a6.96 6.96 0 0 0-.49-3.03l2.21-.6a4.04 4.04 0 0 1 .44 1.95 11.67 11.67 0 0 1 1.65-1.24 4.72 4.72 0 0 1 2.37-.64 3.19 3.19 0 0 1 3 1.8 4 4 0 0 1 .3 1.6v9.65Z" transform="translate(-175.34 -21.76)" fill="#fff"/><path id="Caminho_2504" data-name="Caminho 2504" d="M456.29 62a4.92 4.92 0 0 1-.23-1.2 4.26 4.26 0 0 1-3.28 1.4c-3.26 0-5.17-2.45-5.17-6.47 0-2.75.94-4.86 2.67-5.98a4.4 4.4 0 0 1 2.5-.74 3.8 3.8 0 0 1 3.1 1.48c0-.36-.05-1.38-.05-2.24v-4.96l2.34.38v14.05a15.25 15.25 0 0 0 .35 4.27Zm-.49-9.9a3.26 3.26 0 0 0-2.7-1.2 2.5 2.5 0 0 0-2.2 1.3 6.77 6.77 0 0 0-.67 3.5c0 2.47.3 3.16 1 3.87a2.4 2.4 0 0 0 1.87.66 3.02 3.02 0 0 0 2.7-1.48Z" transform="translate(-184.56 -17.85)" fill="#fff"/><path id="Retângulo_1957" data-name="Retângulo 1957" transform="translate(79.4 52.24)" fill="#fff" d="M0 0h195.13v.59H0z"/><path id="Caminho_2505" data-name="Caminho 2505" d="m143.49 112.5-.4-5.18c-.04-.41-.05-.98-.06-1.2h-.02c-.05.22-.16.7-.28 1.1l-1.51 5.28h-.92l-1.4-5.04c-.16-.58-.3-1.16-.33-1.36h-.03c0 .27-.04.96-.07 1.36l-.4 5.04h-1.03l.69-7.61h1.49l1.28 4.67a11.63 11.63 0 0 1 .27 1.25h.03c.03-.19.12-.69.26-1.2l1.33-4.72h1.5l.65 7.6Z" transform="translate(-56.5 -43.24)" fill="#fff"/><path id="Caminho_2506" data-name="Caminho 2506" d="M156 114.07a1.27 1.27 0 0 1-.74-.8 1.92 1.92 0 0 1-1.57.73c-1.1 0-1.79-.57-1.79-1.63 0-1.28 1.03-1.96 2.82-1.96h.39v-.36c0-.65-.1-1.09-.87-1.09a3.06 3.06 0 0 0-1.7.63l-.46-.73a4.36 4.36 0 0 1 2.32-.73 1.53 1.53 0 0 1 1.6.89 2.53 2.53 0 0 1 .1.97c0 .4-.03 1.25-.03 2.05 0 .76.02 1.07.45 1.34Zm-1.25-2.97a1.91 1.91 0 0 0-1.44.4 1.07 1.07 0 0 0-.3.8c0 .61.32.96.88.96a1.38 1.38 0 0 0 1.16-.73l.03-1.41-.33-.02" transform="translate(-62.63 -44.59)" fill="#fff"/><path id="Caminho_2507" data-name="Caminho 2507" d="M163.8 114c-1.49 0-2.4-1.13-2.4-2.93s.9-2.91 2.37-2.91c1.63 0 2.43 1.3 2.43 2.97 0 1.75-.94 2.87-2.41 2.87m-.02-5.06c-.89 0-1.25.63-1.25 2.02 0 1.7.43 2.26 1.3 2.26.76 0 1.24-.6 1.24-2.05 0-1.71-.5-2.23-1.3-2.23" transform="translate(-66.54 -44.6)" fill="#fff"/><path id="Caminho_2508" data-name="Caminho 2508" d="M172.48 105.73a.72.72 0 0 1-.7-.73.72.72 0 1 1 1.44 0 .74.74 0 0 1-.74.73m-.52 6.51v-5.5l1.05-.16v5.66Z" transform="translate(-70.82 -42.99)" fill="#fff"/><path id="Caminho_2509" data-name="Caminho 2509" d="M179.9 113.84v-3.74c0-.5-.05-.67-.19-.85a.69.69 0 0 0-.56-.22 2.24 2.24 0 0 0-1.37.7v4.1h-1v-4.12a3.02 3.02 0 0 0-.21-1.31l.96-.27a1.76 1.76 0 0 1 .18.85 5.1 5.1 0 0 1 .72-.54 2.05 2.05 0 0 1 1.03-.27 1.39 1.39 0 0 1 1.3.78 1.74 1.74 0 0 1 .13.7v4.19Z" transform="translate(-72.8 -44.59)" fill="#fff"/><path id="Caminho_2510" data-name="Caminho 2510" d="M188.62 113.93a2.03 2.03 0 0 1-1.78-.83 3.34 3.34 0 0 1-.53-2 3.03 3.03 0 0 1 .92-2.44 2.17 2.17 0 0 1 2.94.02l-.53.7a1.35 1.35 0 0 0-.97-.43 1.07 1.07 0 0 0-.97.6 3.94 3.94 0 0 0-.27 1.7 2.29 2.29 0 0 0 .44 1.58 1.07 1.07 0 0 0 .8.34 1.55 1.55 0 0 0 1.15-.58l.5.63a2.18 2.18 0 0 1-1.7.72" transform="translate(-76.82 -44.57)" fill="#fff"/><path id="Caminho_2511" data-name="Caminho 2511" d="M198.39 112.16v-3.8a1.22 1.22 0 0 0-.2-.78.88.88 0 0 0-.6-.2 2.12 2.12 0 0 0-1.47.8v3.98h-1.03v-6.73a4.83 4.83 0 0 0-.12-1.16l1.03-.21a5.59 5.59 0 0 1 .12 1.28v1.24l-.03.74a3.93 3.93 0 0 1 .58-.46 2.14 2.14 0 0 1 1.2-.37 1.41 1.41 0 0 1 1.4.83 2.24 2.24 0 0 1 .1.9v3.94Z" transform="translate(-80.39 -42.9)" fill="#fff"/><path id="Caminho_2512" data-name="Caminho 2512" d="M205.8 105.73a.72.72 0 0 1-.71-.73.72.72 0 1 1 1.44 0 .74.74 0 0 1-.74.73m-.51 6.51v-5.5l1.05-.16v5.66Z" transform="translate(-84.56 -42.99)" fill="#fff"/><path id="Caminho_2513" data-name="Caminho 2513" d="M211.37 113.95a4.21 4.21 0 0 1-2.07-.59l.36-.73a3.78 3.78 0 0 0 1.78.55.92.92 0 0 0 1.03-.9c0-.47-.29-.74-.93-.86l-.67-.14a1.48 1.48 0 0 1-1.35-1.53 1.79 1.79 0 0 1 2-1.73 3.52 3.52 0 0 1 1.75.46l-.35.72a2.99 2.99 0 0 0-1.36-.4.85.85 0 0 0-.96.82c0 .4.2.62.79.76l.72.16c1.01.23 1.43.82 1.43 1.55a1.93 1.93 0 0 1-2.17 1.85" transform="translate(-86.3 -44.54)" fill="#fff"/><path id="Caminho_2514" data-name="Caminho 2514" d="M220.51 107.97h-1.1v3.34c0 .68.17.9.73.9a1.22 1.22 0 0 0 .52-.11l.12.62a2.2 2.2 0 0 1-1 .23 1.53 1.53 0 0 1-.94-.28c-.23-.2-.41-.32-.41-1.12v-3.57h-.66v-.72h.66a12 12 0 0 1 .07-1.41l1.05-.25c-.05.4-.1 1.1-.1 1.66h1.34Z" transform="translate(-89.78 -43.54)" fill="#fff"/><path id="Caminho_2515" data-name="Caminho 2515" d="M225.42 111.28v.13a2.09 2.09 0 0 0 .24 1.1 1.44 1.44 0 0 0 1.27.65 1.97 1.97 0 0 0 1.35-.53l.4.6a2.83 2.83 0 0 1-1.92.72c-1.54 0-2.48-1.12-2.48-2.93a3.03 3.03 0 0 1 .67-2.15 2.06 2.06 0 0 1 1.67-.76 2 2 0 0 1 1.5.6 3.1 3.1 0 0 1 .67 2.39v.18Zm1.97-2a1 1 0 0 0-.8-.4c-.77 0-1.16.64-1.16 1.64h2.3a2.02 2.02 0 0 0-.34-1.24" transform="translate(-92.47 -44.58)" fill="#fff"/><path id="Caminho_2516" data-name="Caminho 2516" d="m242.3 112.49-.67-2.15h-2.64l-.67 2.15h-1.1l2.5-7.62h1.33l2.45 7.62Zm-1.93-6.56h-.07a111 111 0 0 1-1.05 3.52h2.15c-.13-.35-.93-3.08-1.03-3.52" transform="translate(-97.8 -43.24)" fill="#fff"/><path id="Caminho_2517" data-name="Caminho 2517" d="M252.41 113.84v-3.74c0-.5-.04-.67-.18-.85a.69.69 0 0 0-.56-.22 2.24 2.24 0 0 0-1.37.7v4.1h-1v-4.12a3.02 3.02 0 0 0-.22-1.31l.96-.27a1.76 1.76 0 0 1 .2.85 5.1 5.1 0 0 1 .71-.54 2.05 2.05 0 0 1 1.03-.27 1.39 1.39 0 0 1 1.3.78 1.74 1.74 0 0 1 .13.7v4.19Z" transform="translate(-102.7 -44.59)" fill="#fff"/><path id="Caminho_2518" data-name="Caminho 2518" d="M262.43 113.84v-3.74c0-.5-.04-.67-.17-.85a.69.69 0 0 0-.57-.22 2.24 2.24 0 0 0-1.37.7v4.1h-1v-4.12a3.02 3.02 0 0 0-.21-1.31l.96-.27a1.76 1.76 0 0 1 .18.85 5.1 5.1 0 0 1 .72-.54 2.05 2.05 0 0 1 1.03-.27 1.39 1.39 0 0 1 1.3.79 1.74 1.74 0 0 1 .13.7v4.18Z" transform="translate(-106.83 -44.59)" fill="#fff"/><path id="Caminho_2519" data-name="Caminho 2519" d="M272.9 112.26a1.27 1.27 0 0 1-.73-.8 1.92 1.92 0 0 1-1.57.73c-1.1 0-1.8-.57-1.8-1.63 0-1.28 1.04-1.97 2.83-1.97.13 0 .24 0 .38.02v-.37c0-.65-.09-1.1-.86-1.1a3.06 3.06 0 0 0-1.7.64l-.46-.73a4.36 4.36 0 0 1 2.32-.73 1.53 1.53 0 0 1 1.6.88 2.52 2.52 0 0 1 .1.97c0 .4-.03 1.25-.03 2.06 0 .76.02 1.07.45 1.34Zm-1.24-2.98a1.91 1.91 0 0 0-1.45.4 1.07 1.07 0 0 0-.28.81c0 .6.3.96.87.96a1.38 1.38 0 0 0 1.16-.73l.03-1.41-.33-.02m-1.39-3.48-.32-.6 2.22-1.47.5.94Z" transform="translate(-110.83 -42.77)" fill="#fff"/><path id="Caminho_2520" data-name="Caminho 2520" d="M279.93 112.27a.94.94 0 0 1-.86-.42 1.4 1.4 0 0 1-.21-.97v-5.01a7.22 7.22 0 0 0-.12-1.6l1.06-.21a6.87 6.87 0 0 1 .1 1.58v4.98c0 .58.03.72.14.82a.37.37 0 0 0 .34.07l.18.63a1.5 1.5 0 0 1-.63.13" transform="translate(-114.93 -42.9)" fill="#fff"/><path id="Caminho_2521" data-name="Caminho 2521" d="M287.35 114.07a1.27 1.27 0 0 1-.74-.8 1.92 1.92 0 0 1-1.57.73c-1.1 0-1.8-.57-1.8-1.63 0-1.28 1.03-1.96 2.82-1.96h.4v-.36c0-.65-.1-1.09-.87-1.09a3.06 3.06 0 0 0-1.7.63l-.46-.73a4.36 4.36 0 0 1 2.32-.73 1.53 1.53 0 0 1 1.6.89 2.53 2.53 0 0 1 .1.97c0 .4-.04 1.25-.04 2.05 0 .76.02 1.07.46 1.34Zm-1.25-2.97a1.91 1.91 0 0 0-1.45.4 1.07 1.07 0 0 0-.28.8c0 .61.3.97.87.97a1.38 1.38 0 0 0 1.16-.73l.03-1.42-.33-.02" transform="translate(-116.79 -44.59)" fill="#fff"/><path id="Caminho_2522" data-name="Caminho 2522" d="M299.24 112.55a4.66 4.66 0 0 1-2.45-.68l.42-.81a3.75 3.75 0 0 0 2.05.63c1 0 1.65-.51 1.65-1.33 0-.62-.41-1.05-1.26-1.3l-.8-.22c-1.15-.34-1.8-.89-1.8-1.97a2.26 2.26 0 0 1 2.52-2.21 4.04 4.04 0 0 1 2.33.72l-.48.75a3.2 3.2 0 0 0-1.81-.6c-.85 0-1.38.44-1.38 1.15 0 .54.3.85 1.12 1.1l.9.26a2.24 2.24 0 0 1 1.86 2.14c0 1.06-.88 2.37-2.88 2.37" transform="translate(-122.37 -43.15)" fill="#fff"/><path id="Caminho_2523" data-name="Caminho 2523" d="M311.75 114.07a1.27 1.27 0 0 1-.74-.8 1.92 1.92 0 0 1-1.57.73c-1.1 0-1.79-.57-1.79-1.63 0-1.28 1.03-1.96 2.82-1.96h.39v-.36c0-.65-.1-1.09-.87-1.09a3.06 3.06 0 0 0-1.7.63l-.46-.73a4.36 4.36 0 0 1 2.32-.73 1.53 1.53 0 0 1 1.6.89 2.52 2.52 0 0 1 .11.97c0 .4-.04 1.25-.04 2.05 0 .76.02 1.07.45 1.34Zm-1.25-2.97a1.91 1.91 0 0 0-1.45.4 1.07 1.07 0 0 0-.28.8c0 .61.3.97.87.97a1.38 1.38 0 0 0 1.16-.73l.03-1.42-.33-.02" transform="translate(-126.85 -44.59)" fill="#fff"/><path id="Caminho_2524" data-name="Caminho 2524" d="M323.58 113.84v-3.96c0-.63-.2-.85-.66-.85a1.9 1.9 0 0 0-1.3.75v4.07h-1v-3.95c0-.62-.17-.85-.68-.85a1.9 1.9 0 0 0-1.27.64v4.16h-1v-4.07a3.02 3.02 0 0 0-.2-1.38l.95-.23a1.57 1.57 0 0 1 .18.77 2.26 2.26 0 0 1 1.56-.79 1.43 1.43 0 0 1 1.32.88 2.38 2.38 0 0 1 1.69-.88 1.36 1.36 0 0 1 1.41 1.56v4.13Z" transform="translate(-130.9 -44.6)" fill="#fff"/><path id="Caminho_2525" data-name="Caminho 2525" d="M335.81 112.16v-3.8a1.22 1.22 0 0 0-.19-.78.88.88 0 0 0-.6-.2 2.12 2.12 0 0 0-1.47.8v3.98h-1.03v-6.73a4.84 4.84 0 0 0-.12-1.16l1.02-.21a5.62 5.62 0 0 1 .13 1.28v1.24c0 .2-.01.45-.04.74a3.87 3.87 0 0 1 .59-.46 2.14 2.14 0 0 1 1.2-.37 1.41 1.41 0 0 1 1.4.83 2.25 2.25 0 0 1 .1.9v3.94Z" transform="translate(-137.05 -42.9)" fill="#fff"/><path id="Caminho_2526" data-name="Caminho 2526" d="M346.3 114.07a1.27 1.27 0 0 1-.75-.8 1.92 1.92 0 0 1-1.57.73c-1.1 0-1.79-.57-1.79-1.63 0-1.28 1.03-1.96 2.82-1.96h.39v-.36c0-.65-.1-1.09-.87-1.09a3.06 3.06 0 0 0-1.7.63l-.46-.73a4.36 4.36 0 0 1 2.32-.73 1.53 1.53 0 0 1 1.6.89 2.53 2.53 0 0 1 .11.97c0 .4-.04 1.25-.04 2.05 0 .76.02 1.07.45 1.34Zm-1.26-2.97a1.91 1.91 0 0 0-1.44.4 1.07 1.07 0 0 0-.29.8c0 .61.31.96.87.96a1.38 1.38 0 0 0 1.16-.73l.04-1.41-.33-.02" transform="translate(-141.09 -44.59)" fill="#fff"/><path id="Caminho_2527" data-name="Caminho 2527" d="M353.31 112.27a.94.94 0 0 1-.86-.42 1.4 1.4 0 0 1-.2-.97v-5.01a7.22 7.22 0 0 0-.13-1.6l1.06-.21a6.88 6.88 0 0 1 .1 1.58v4.98c0 .58.04.72.14.82a.37.37 0 0 0 .35.07l.17.63a1.49 1.49 0 0 1-.63.13" transform="translate(-145.18 -42.9)" fill="#fff"/><path id="Caminho_2528" data-name="Caminho 2528" d="M358.97 107.97h-1.1v3.34c0 .68.17.9.73.9a1.22 1.22 0 0 0 .51-.11l.13.62a2.2 2.2 0 0 1-1.01.23 1.53 1.53 0 0 1-.94-.28c-.23-.2-.4-.32-.4-1.12v-3.57h-.67v-.72h.66a12 12 0 0 1 .07-1.41l1.05-.25c-.04.4-.1 1.1-.1 1.66h1.35Z" transform="translate(-146.87 -43.54)" fill="#fff"/><path id="Caminho_2529" data-name="Caminho 2529" d="M366.84 114.07a1.27 1.27 0 0 1-.74-.8 1.92 1.92 0 0 1-1.57.73c-1.1 0-1.79-.57-1.79-1.63 0-1.28 1.03-1.96 2.82-1.96h.39v-.36c0-.65-.1-1.09-.87-1.09a3.06 3.06 0 0 0-1.7.63l-.46-.73a4.36 4.36 0 0 1 2.32-.73 1.53 1.53 0 0 1 1.6.89 2.52 2.52 0 0 1 .11.97c0 .4-.04 1.25-.04 2.05 0 .76.02 1.07.45 1.34Zm-1.25-2.97a1.91 1.91 0 0 0-1.44.4 1.07 1.07 0 0 0-.29.8c0 .61.3.96.87.96a1.38 1.38 0 0 0 1.16-.73l.04-1.41-.34-.02" transform="translate(-149.56 -44.59)" fill="#fff"/><path id="Caminho_2530" data-name="Caminho 2530" d="M380.12 113.84v-3.74c0-.5-.05-.67-.18-.85a.69.69 0 0 0-.57-.22 2.24 2.24 0 0 0-1.37.7v4.1h-1v-4.12a3.03 3.03 0 0 0-.2-1.31l.95-.27a1.75 1.75 0 0 1 .19.85 5 5 0 0 1 .72-.54 2.05 2.05 0 0 1 1.02-.27 1.38 1.38 0 0 1 1.3.78 1.73 1.73 0 0 1 .14.7v4.19Z" transform="translate(-155.35 -44.59)" fill="#fff"/><path id="Caminho_2531" data-name="Caminho 2531" d="M390.59 114.07a1.27 1.27 0 0 1-.74-.8 1.92 1.92 0 0 1-1.57.73c-1.1 0-1.79-.57-1.79-1.63 0-1.28 1.03-1.96 2.82-1.96h.38v-.36c0-.65-.09-1.09-.86-1.09a3.06 3.06 0 0 0-1.7.63l-.46-.73a4.36 4.36 0 0 1 2.32-.73 1.53 1.53 0 0 1 1.6.89 2.53 2.53 0 0 1 .1.97c0 .4-.04 1.25-.04 2.05 0 .76.03 1.07.46 1.34Zm-1.25-2.97a1.91 1.91 0 0 0-1.45.4 1.07 1.07 0 0 0-.28.8c0 .61.3.96.87.96a1.38 1.38 0 0 0 1.16-.73l.03-1.41-.33-.02" transform="translate(-159.35 -44.59)" fill="#fff"/><path id="Caminho_2532" data-name="Caminho 2532" d="M404.06 112.16v-3.8a1.22 1.22 0 0 0-.18-.78.88.88 0 0 0-.61-.2 2.12 2.12 0 0 0-1.47.8v3.98h-1.03v-6.73a4.83 4.83 0 0 0-.12-1.16l1.02-.21a5.62 5.62 0 0 1 .13 1.28v1.24c0 .2-.01.45-.04.74a3.93 3.93 0 0 1 .59-.46 2.14 2.14 0 0 1 1.2-.37 1.42 1.42 0 0 1 1.4.83 2.25 2.25 0 0 1 .1.9v3.94Z" transform="translate(-165.2 -42.9)" fill="#fff"/><path id="Caminho_2533" data-name="Caminho 2533" d="M411.3 110.78v-7.6h4.13l-.14.86h-2.93v2.32h2.46v.9h-2.45v2.61h3.19v.92Zm1.23-7.99-.32-.6 2.22-1.46.5.94Z" transform="translate(-169.58 -41.53)" fill="#fff"/><path id="Caminho_2534" data-name="Caminho 2534" d="M421.17 105.73a.72.72 0 0 1-.7-.73.72.72 0 1 1 1.44 0 .74.74 0 0 1-.74.73m-.52 6.51v-5.5l1.05-.16v5.66Z" transform="translate(-173.36 -42.99)" fill="#fff"/><path id="Caminho_2535" data-name="Caminho 2535" d="M427.92 109.19a.82.82 0 0 0-.28-.06 1.16 1.16 0 0 0-1.15 1.13v3.57h-1.02v-4.07a3.53 3.53 0 0 0-.21-1.38l.98-.25a2.3 2.3 0 0 1 .2.85v.1a1.82 1.82 0 0 1 1.5-.96 1 1 0 0 1 .33.05Z" transform="translate(-175.34 -44.58)" fill="#fff"/><path id="Caminho_2536" data-name="Caminho 2536" d="M432.26 111.28v.13a2.09 2.09 0 0 0 .24 1.1 1.44 1.44 0 0 0 1.27.65 1.97 1.97 0 0 0 1.36-.53l.38.6a2.83 2.83 0 0 1-1.9.72c-1.54 0-2.48-1.12-2.48-2.93a3.02 3.02 0 0 1 .66-2.15 2.06 2.06 0 0 1 1.67-.76 2 2 0 0 1 1.5.6 3.1 3.1 0 0 1 .67 2.39v.18Zm1.97-2a1 1 0 0 0-.8-.4c-.77 0-1.16.64-1.16 1.64h2.3a2.02 2.02 0 0 0-.34-1.24" transform="translate(-177.76 -44.58)" fill="#fff"/><path id="Caminho_2537" data-name="Caminho 2537" d="M444.78 114.07a1.27 1.27 0 0 1-.74-.8 1.92 1.92 0 0 1-1.57.73c-1.1 0-1.8-.57-1.8-1.63 0-1.28 1.03-1.96 2.82-1.96h.4v-.36c0-.65-.1-1.09-.87-1.09a3.06 3.06 0 0 0-1.7.63l-.47-.73a4.36 4.36 0 0 1 2.32-.73 1.53 1.53 0 0 1 1.6.89 2.53 2.53 0 0 1 .11.97c0 .4-.04 1.25-.04 2.05 0 .76.02 1.07.45 1.34Zm-1.25-2.97a1.91 1.91 0 0 0-1.45.4 1.07 1.07 0 0 0-.28.8c0 .61.3.96.87.96a1.38 1.38 0 0 0 1.16-.73l.03-1.41-.33-.02" transform="translate(-181.7 -44.59)" fill="#fff"/><path id="Caminho_2538" data-name="Caminho 2538" d="M453.82 113.84v-3.74c0-.5-.04-.67-.18-.85a.69.69 0 0 0-.56-.22 2.24 2.24 0 0 0-1.37.7v4.1h-1.01v-4.12a3.02 3.02 0 0 0-.21-1.31l.96-.27a1.76 1.76 0 0 1 .19.85 5.1 5.1 0 0 1 .72-.54 2.05 2.05 0 0 1 1.02-.27 1.39 1.39 0 0 1 1.3.78 1.73 1.73 0 0 1 .14.7v4.19Z" transform="translate(-185.74 -44.59)" fill="#fff"/><path id="Caminho_2539" data-name="Caminho 2539" d="M463.84 113.84v-3.74c0-.5-.04-.67-.18-.85a.69.69 0 0 0-.56-.22 2.24 2.24 0 0 0-1.37.7v4.1h-1v-4.12a3.02 3.02 0 0 0-.22-1.31l.96-.27a1.76 1.76 0 0 1 .2.85 5.1 5.1 0 0 1 .71-.54 2.05 2.05 0 0 1 1.03-.27 1.39 1.39 0 0 1 1.3.78 1.73 1.73 0 0 1 .13.7v4.19Z" transform="translate(-189.88 -44.59)" fill="#fff"/><path id="Retângulo_1958" data-name="Retângulo 1958" transform="translate(0 .19)" fill="#fff" d="M0 0h68.92v68.92H0z"/><g id="Grupo_2258" data-name="Grupo 2258" transform="translate(21.7 41.5)" opacity=".3"><g id="Grupo_2257" data-name="Grupo 2257"><g id="Grupo_2256" data-name="Grupo 2256" clip-path="url(#clip-path-3)" fill="#161615"><path id="Caminho_2540" data-name="Caminho 2540" d="m56.17 97.79.08.02A8.26 8.26 0 0 0 62.8 96c1.46-1.4.9-2.87-1.24-3.3h-.06l-15.86-3.06-8.71 4.3Z" transform="translate(-36.92 -78.47)"/><path id="Caminho_2541" data-name="Caminho 2541" d="M69.2 85.24a6.69 6.69 0 0 0 5.36-1.48c1.19-1.16.72-2.38-1.04-2.73l-.08-.01-6.71-1.32-7.3 3.61Z" transform="translate(-46.2 -74.37)"/><path id="Caminho_2542" data-name="Caminho 2542" d="M81.04 77.24a3.52 3.52 0 0 0 2.93-.85c.66-.68.4-1.39-.56-1.59l-.11-.01-3.14-.6-4.02 1.99Z" transform="translate(-53.1 -72.1)"/><path id="Caminho_2543" data-name="Caminho 2543" d="m89.91 70.95.04-.04-1.6-.28-2.62 1.3 2.68.46.03-.03a2.3 2.3 0 0 0 1.77-.5c.4-.39.26-.79-.3-.91" transform="translate(-57.04 -70.63)"/></g></g></g><path id="Caminho_2544" data-name="Caminho 2544" d="M41.82 19.57v-.2a4.55 4.55 0 0 0-4.34-4.56 4.03 4.03 0 0 0-2.1.59 4.66 4.66 0 0 0-2.27 4.24l.03 43 8.75-4.45Z" transform="translate(-13.65 -6.1)" fill="#161615"/><path id="Caminho_2545" data-name="Caminho 2545" d="M63.7 29.5v-.16a3.62 3.62 0 0 0-3.46-3.63 3.21 3.21 0 0 0-1.67.47 3.7 3.7 0 0 0-1.8 3.37l.03 30.63 6.96-3.55Z" transform="translate(-23.4 -10.6)" fill="#161615"/><path id="Caminho_2546" data-name="Caminho 2546" d="M77.47 38.2v-.09a1.94 1.94 0 0 0-1.85-1.94 1.72 1.72 0 0 0-.9.25 1.99 1.99 0 0 0-.96 1.8l.01 21.54 3.73-1.9Z" transform="translate(-30.41 -14.91)" fill="#161615"/><path id="Caminho_2547" data-name="Caminho 2547" d="M86.48 45.5a.62.62 0 0 0 0-.07 1.43 1.43 0 0 0-1.37-1.44 1.26 1.26 0 0 0-.66.19 1.47 1.47 0 0 0-.72 1.33l.01 14.9 2.76-1.4Z" transform="translate(-34.52 -18.14)" fill="#161615"/></g></g></g></svg>